<svg width="250" height="83" viewBox="0 0 250 83" fill="none" xmlns="http://www.w3.org/2000/svg">
<path d="M63.6628 66.5008L41.4881 12.4034C40.8746 11.005 39.4722 10.0437 37.9384 10.0437H36.0978C34.5202 10.0437 33.1616 11.005 32.5481 12.4034L10.2858 66.5008C9.32164 68.7731 10.8993 71.4387 13.4849 71.7008H40.3487C42.3646 71.7008 43.986 70.0403 43.986 68.074C43.986 66.0639 42.4084 64.3597 40.3487 64.3597H19.401L35.9225 24.2017L36.9743 21.5798L38.026 24.2017L56.651 69.2975C57.1769 70.6958 58.5793 71.6571 60.2008 71.6571C62.874 71.7008 64.7146 68.9479 63.6628 66.5008Z" fill="#F4E9DF"/>
<path d="M100.957 24.2017C94.6898 24.2017 88.9489 26.7361 84.698 30.8874V13.6269C84.698 11.7042 83.0328 10 80.973 10C79.0448 10 77.3357 11.6605 77.3357 13.6269V68.0739C77.3357 69.9966 79.001 71.7008 80.973 71.7008C82.9889 71.7008 84.698 70.0403 84.698 68.0739V65.8891C88.9489 70.0403 94.6898 72.5748 100.957 72.5748C113.928 72.5748 124.534 61.7378 124.534 48.4538C124.534 35.0387 113.928 24.2017 100.957 24.2017ZM84.698 48.4101C84.698 39.0588 92.0166 31.4992 100.957 31.4992C109.984 31.4992 117.215 39.0588 117.215 48.4101C117.215 57.674 109.984 65.2336 100.957 65.2336C92.0166 65.2336 84.698 57.674 84.698 48.4101Z" fill="#F4E9DF"/>
<path d="M143.509 20.0504C146.226 20.0504 148.549 17.7782 148.549 15.0252C148.549 12.2723 146.27 10 143.509 10C140.792 10 138.469 12.2723 138.469 15.0252C138.469 17.7782 140.792 20.0504 143.509 20.0504ZM139.872 68.0739C139.872 69.9966 141.449 71.7008 143.509 71.7008C145.525 71.7008 147.147 70.0403 147.147 68.0739V29.6639C147.147 27.6538 145.569 26.037 143.509 26.037C141.493 26.037 139.872 27.6101 139.872 29.6639V68.0739Z" fill="#F4E9DF"/>
<path d="M201.663 26.0369C199.647 26.0369 197.938 27.61 197.938 29.6638V50.9881C197.938 58.8974 191.759 65.2772 184.265 65.2772C176.684 65.2772 170.505 58.9411 170.505 50.9881V29.6638C170.505 27.6537 168.839 26.0369 166.78 26.0369C164.851 26.0369 163.142 27.61 163.142 29.6638V51.1629C163.23 62.9612 172.696 72.5747 184.265 72.5747C195.835 72.5747 205.213 62.9612 205.301 51.1629V29.6638C205.301 27.6537 203.723 26.0369 201.663 26.0369Z" fill="#F4E9DF"/>
<path d="M237.467 65.1462C232.427 64.0101 228.615 59.3345 228.615 53.6975V31.9361H236.634C238.387 31.9361 239.833 30.5378 239.833 28.7462C239.833 26.9546 238.431 25.4689 236.634 25.4689H228.615V13.3647C228.615 11.6168 227.212 10.1748 225.415 10.1748H224.451C222.698 10.1748 221.252 11.5731 221.252 13.3647V53.6975C221.252 62.874 227.519 70.521 236.021 72.2689C237.949 72.7059 239.833 71.2202 239.833 69.1664V68.2051C239.877 66.8504 238.869 65.4958 237.467 65.1462Z" fill="#F4E9DF"/>
</svg>
