<svg width="300" height="490" viewBox="0 0 300 490" fill="none" xmlns="http://www.w3.org/2000/svg">
<g clip-path="url(#clip0_79_241)">
<path d="M177.5 157.8C171.8 170.2 170.6 184.3 171.1 197.9C171.6 213.6 174.2 229.6 181.8 243.5C189.4 257.3 202.5 268.7 218.1 271.2C233.1 273.6 248.7 267.5 259.8 257.1C270.9 246.7 277.8 232.4 281.6 217.7C287.3 195.7 286 170.9 273.3 152.1C250.2 118 195.2 119.6 177.5 157.8Z" fill="white"/>
<path d="M276.1 217.6C272.7 230.7 266.6 243.3 256.7 252.6C246.9 261.8 233 267.3 219.6 265.1C208.5 263.3 198.7 256.4 191.9 247.4C198.2 253.7 206.1 258.2 214.8 259.6C228.1 261.8 242 256.3 251.9 247.1C261.8 237.9 267.9 225.2 271.3 212.1C276.3 192.6 275.2 170.6 263.9 153.9C263.5 153.3 263 152.6 262.6 152C264.9 154.2 266.9 156.7 268.8 159.4C280 176 281.2 198 276.1 217.6Z" fill="#E6E6E6"/>
<path d="M224.8 274C222.4 274 220.1 273.8 217.7 273.4C202.5 270.9 188.3 260.1 179.8 244.5C173 232.2 169.4 216.9 168.8 197.9C168.2 180.8 170.3 167.7 175.4 156.7C183.7 138.8 200.8 127.2 221.3 125.5C242.9 123.8 263.5 133.4 275.2 150.6C287.2 168.3 290.4 192.9 283.9 218.1C279.6 234.9 271.8 248.9 261.4 258.6C250.9 268.5 237.7 274 224.8 274ZM179.6 158.7C174.8 169 172.9 181.4 173.4 197.8C174 216.1 177.4 230.6 183.8 242.3C191.7 256.7 204.6 266.6 218.4 268.8C231.9 271 246.8 266 258.2 255.3C267.9 246.2 275.2 232.9 279.3 217C285.5 193.1 282.5 169.9 271.3 153.3C260.6 137.5 241.6 128.6 221.7 130.2C202.9 131.8 187.2 142.4 179.6 158.7Z" fill="#333333"/>
<path d="M22.3004 152.9C14.3004 166.4 10.8004 182.2 9.30044 197.9C7.30044 218.6 9.80044 242 25.3004 255.9C42.8004 271.5 72.1004 268.2 89.5004 252.4C106.9 236.6 113.6 211.7 112.4 188.2C111.6 172.3 107.3 156.2 97.2004 143.9C74.4004 116.1 39.4004 124.2 22.3004 152.9Z" fill="white"/>
<path d="M93.8998 239.2C91.3998 242.9 88.4998 246.3 85.1998 249.3C69.8998 263.2 44.0998 266.1 28.6998 252.3C14.9998 240.1 12.8998 219.5 14.5998 201.3C15.8998 187.5 18.9998 173.6 25.9998 161.7C27.7998 158.6 29.8998 155.8 32.0998 153.3C31.5998 154.1 31.0998 154.9 30.5998 155.7C23.4998 167.6 20.4998 181.5 19.1998 195.3C17.4998 213.5 19.5998 234.1 33.2998 246.3C48.6998 260 74.4998 257.1 89.7998 243.3C91.2998 242 92.5998 240.6 93.8998 239.2Z" fill="#E6E6E6"/>
<path d="M53.9997 268.5C42.7997 268.5 31.8997 264.9 23.7997 257.6C6.69968 242.3 5.19968 216.6 6.99968 197.6C8.79968 178.8 13.0997 163.7 20.2997 151.6C29.6997 135.8 44.6997 125.6 60.4997 124.4C74.8997 123.3 88.5997 129.7 99.0997 142.3C108.4 153.7 113.9 169.5 114.8 188C116.2 215.1 107.6 239.1 91.0997 254C80.5997 263.7 67.0997 268.5 53.9997 268.5ZM24.3997 154.1C17.5997 165.6 13.3997 180 11.6997 198.1C9.99968 216 11.2997 240.2 26.8997 254.1C44.1997 269.5 72.3997 264.8 87.9997 250.7C103.4 236.8 111.5 214.1 110.1 188.4C109.5 176.2 106.4 158.8 95.3997 145.4C85.9997 133.9 73.6997 128.2 60.7997 129.1C46.5997 130.3 32.8997 139.6 24.3997 154.1Z" fill="#333333"/>
<path d="M64.7 217.6C71.6 221.8 80.8 221.4 87.7 217.2C104.7 206.8 91.7 183.4 74.7 183.1C56.1 182.6 48.4 207.7 64.7 217.6Z" fill="#333333"/>
<path d="M208.3 217.6C215.2 221.8 224.4 221.4 231.3 217.2C248.3 206.8 235.3 183.4 218.3 183.1C199.7 182.6 192 207.7 208.3 217.6Z" fill="#333333"/>
<path d="M238.7 486.7C235.1 487.2 231.4 487.4 227.8 487.5C206.8 488 185.8 481.9 165.2 476.3C162.6 475.6 159.9 474.9 157.2 474.2C141.3 470 124.7 465.5 108.5 464.7C99.0997 464.2 89.7997 464.9 80.7997 467.5C79.2997 468 77.6997 468.5 76.1997 469.1C74.7997 431.9 80.3997 394.4 92.5997 359.3C96.0997 349.2 100.2 339.3 105.7 330.3C108.3 326.1 111.3 322.1 114.7 318.5C125.3 307.1 140.7 299.2 156.2 301C174.5 303.1 188.6 317.5 199 333.2C200.2 335 201.3 336.8 202.4 338.6C229.4 382.6 242.2 435.1 238.7 486.7Z" fill="#333333"/>
<path d="M199.1 333.1C198.5 333.3 197.8 333.6 197.1 333.8C168.3 343.8 135.9 342.8 107.8 331.1C107.2 330.9 106.6 330.6 106 330.4C105.9 330.4 105.8 330.3 105.7 330.3C105.8 330.1 105.9 329.9 106 329.8C108.6 325.8 111.4 322 114.7 318.5C125.3 307.1 140.7 299.2 156.2 301C174.6 303 188.7 317.4 199.1 333.1Z" fill="white"/>
<path d="M208.9 461.1C204.7 468.5 195.7 471.5 187.4 473.2C180.1 474.7 172.6 475.8 165.2 476.2C162.6 475.5 159.9 474.8 157.2 474.1C141.3 469.9 124.7 465.4 108.5 464.6C101.3 458.2 96.8 449.2 95.7 439C95.2 434.5 95.4 429.8 96.4 424.9C98.4 414.9 107.8 405.6 117.8 407.5C126.3 409.2 132 417.9 140.5 419.3C154 421.6 163.8 405 177.4 403.9C184.6 403.3 191.5 407.4 196.2 412.9C200.9 418.4 203.7 425.3 206.4 431.9C208.9 438.1 211.4 445.1 211.3 451.7C211.3 455.1 210.6 458.3 208.9 461.1Z" fill="#ED373E"/>
<path opacity="0.21" d="M202.2 426.1C201.8 425.6 201.4 425.2 201 424.7C195.8 419.1 188.2 414.9 180.3 415.5C165.4 416.4 154.8 432.9 140 430.5C130.7 429 124.3 420.2 115 418.4C110 417.5 105.1 418.9 101.1 421.6C105.2 415.7 111.8 411.7 118.8 413C127.3 414.7 133.1 423.4 141.5 424.8C155 427.1 164.8 410.5 178.4 409.5C185.6 408.9 192.5 413 197.2 418.5C199.1 420.9 200.8 423.4 202.2 426.1Z" fill="white"/>
<path d="M114.8 0C116.3 5.2 117.5 10.4 118.5 15.7C120.5 26.2 114.5 36.5 104.5 40.2C91.7 45 79.2 50.3 66 54.2C52.6 58.2 38.9 62.4 27.3 70.2C15.7 78.1 6.29996 90.3 5.29996 104.3C-4.70004 88.4 1.19996 67 14.5 53.7C27.8 40.4 46.1 33.7 63.7 27.3C81.4 20.9 102 13.7 114.8 0Z" fill="#333333"/>
<path d="M185.1 0C183.8 4.6 182.7 9.3 181.7 14C179.5 25.3 185.6 36.6 196.4 40.6C208.8 45.3 221.1 50.4 233.9 54.2C247.3 58.2 261 62.4 272.6 70.2C284.2 78 293.7 90.3 294.6 104.3C304.6 88.4 298.7 67 285.5 53.7C272.2 40.4 253.9 33.7 236.3 27.3C218.6 20.9 198 13.7 185.1 0Z" fill="#333333"/>
<path d="M199.1 333.1C198.5 333.3 197.8 333.6 197.1 333.8C184.7 324.2 169.3 318.6 153.5 318C137.3 317.4 121 322.1 107.8 331.2C107.2 331.6 106.6 332 106 332.4C106 331.8 106 331.1 106 330.4C106 330.2 106 330 106 329.7C108.6 325.7 111.4 321.9 114.7 318.4C125.3 307 140.7 299.1 156.2 300.9C174.6 303 188.7 317.4 199.1 333.1Z" fill="#E6E6E6"/>
<path d="M227.8 487.6C206.8 488.1 185.8 482 165.2 476.4C162.5 475.7 159.9 475 157.2 474.3C141.3 470.1 124.7 465.7 108.5 464.8C99.1004 464.3 89.8004 465 80.9004 467.6C81.6004 460.9 84.0004 453.8 85.0004 447.7C85.6004 444.4 86.4004 440.5 89.5004 439.1C91.5004 438.2 93.7004 438.5 95.8004 439.2C96.4004 439.4 97.0004 439.6 97.6004 439.8C133.9 452.4 173.2 456.6 211.4 452C214 451.7 216.6 451.4 219.2 451C219.8 450.9 220.4 451.5 220.9 452.5C224.3 458.5 227.4 481.5 227.8 487.6Z" fill="white"/>
<path d="M227.8 487.6C206.8 488.1 185.8 482 165.2 476.4C162.5 475.7 159.9 475 157.2 474.3C141.3 470.1 124.7 465.7 108.5 464.8C99.1004 464.3 89.8004 465 80.9004 467.6C81.6004 460.9 84.0004 453.8 85.0004 447.7C86.2004 447.3 87.6004 447.1 88.9004 447.2C91.6004 447.3 94.1004 448.3 96.6004 449.2C129.5 461.2 165.1 468.5 199.8 463.4C204.2 462.8 208.6 461.9 212.6 460C216 458.3 219.2 455.8 221 452.5C224.3 458.5 227.4 481.5 227.8 487.6Z" fill="#E6E6E6"/>
<path d="M225.5 489.9C206 489.9 186.6 484.6 167.7 479.4L155.6 476.1C140.1 472 124 467.8 108.4 466.9C98.5 466.3 89.7 467.2 81.5 469.7C79.8 470.2 78.4 470.7 77.1 471.2L74 472.4L73.9 469.1C72.5 431.8 78.2 393.6 90.4 358.4C94.6 346.1 98.9 336.8 103.8 328.9C106.7 324.3 109.8 320.3 113.1 316.7C125.3 303.6 141.6 296.7 156.6 298.4C172.7 300.3 187.7 311.4 201.1 331.6C202.3 333.4 203.5 335.2 204.6 337.1C231.7 381.6 244.6 434.7 241.1 486.7L241 488.6L239.1 488.9C235.8 489.4 232.1 489.7 227.9 489.7C227.1 489.9 226.3 489.9 225.5 489.9ZM102.8 462.2C104.7 462.2 106.7 462.3 108.7 462.4C124.8 463.2 141.1 467.5 156.9 471.7L169.1 475C188.4 480.3 208.3 485.7 227.9 485.3C231.1 485.2 234 485 236.7 484.7C239.7 434.3 227 382.9 200.8 339.7C199.7 337.9 198.6 336.2 197.4 334.4C184.8 315.4 170.9 304.9 156.3 303.2C142.7 301.7 127.9 307.9 116.7 320C113.6 323.4 110.7 327.1 108 331.5C103.3 339.1 99.2 348.1 95.1 360C83.5 393.6 77.8 430.1 78.8 465.8C79.3 465.6 79.9 465.4 80.5 465.3C87.2 463.2 94.6 462.2 102.8 462.2Z" fill="#333333"/>
<path d="M63.9998 211.7H56.3998C52.7998 211.7 49.7998 208.7 49.7998 205.1C49.7998 201.5 52.7998 198.5 56.3998 198.5H63.9998C67.5998 198.5 70.5998 201.5 70.5998 205.1C70.5998 208.7 67.6998 211.7 63.9998 211.7Z" fill="white"/>
<path d="M208.2 211.7H200.6C197 211.7 194 208.7 194 205.1C194 201.5 197 198.5 200.6 198.5H208.2C211.8 198.5 214.8 201.5 214.8 205.1C214.8 208.7 211.9 211.7 208.2 211.7Z" fill="white"/>
</g>
<defs>
<clipPath id="clip0_79_241">
<rect width="299.4" height="489.9" fill="white" transform="translate(0.299805)"/>
</clipPath>
</defs>
</svg>
