<svg xmlns="http://www.w3.org/2000/svg" width="651" height="360" viewBox="0 0 651 360" fill="none">
  <path d="M237.85 277.918L161.329 201.396L180.638 182.087C202.092 160.632 222.832 147.998 242.856 144.184C263.357 139.893 288.865 142.992 319.378 153.481L383.742 174.935C412.348 184.471 436.425 190.43 455.972 192.814C475.997 194.721 495.068 186.616 513.185 168.499C527.011 154.673 536.547 140.37 541.791 125.59C547.036 110.81 545.605 94.1229 537.5 75.5288C530.349 56.9348 514.615 35.4802 490.3 11.1649C462.647 -16.4878 437.855 -35.0818 415.924 -44.6172C394.469 -53.6758 374.445 -55.1062 355.851 -48.9081C337.257 -42.7101 318.186 -29.8374 298.638 -10.2898L287.911 0.437566L211.389 -76.084L222.832 -87.5265C251.438 -116.133 283.62 -135.442 319.378 -145.454C356.089 -155.466 394.946 -153.798 435.948 -140.448C477.904 -127.098 520.336 -98.969 563.246 -56.0597C602.341 -16.9645 627.848 20.4619 639.767 56.2197C652.64 91.9774 654.309 125.59 644.773 157.057C636.192 188.523 619.505 216.653 594.713 241.445C572.304 263.853 548.466 278.156 523.197 284.354C498.882 290.552 474.567 291.982 450.251 288.645C425.936 285.308 402.813 279.825 380.881 272.197L320.808 249.312C305.075 244.067 292.44 242.398 282.905 244.305C273.846 245.736 264.788 250.98 255.729 260.039L237.85 277.918ZM87.6676 440.973L0.418679 353.724L106.262 247.881L193.511 335.13L87.6676 440.973Z" fill="black" fill-opacity="0.1"/>
</svg>