<svg width="164" height="46" viewBox="0 0 164 46" fill="none" xmlns="http://www.w3.org/2000/svg">
<path d="M38.4074 40.9403L22.6321 2.44785C22.1957 1.45289 21.198 0.76886 20.1068 0.76886H18.7974C17.6751 0.76886 16.7086 1.45289 16.2721 2.44785L0.43449 40.9403C-0.251392 42.5571 0.870962 44.4537 2.71037 44.6403H21.8216C23.2557 44.6403 24.4092 43.4588 24.4092 42.0596C24.4092 40.6294 23.2868 39.4168 21.8216 39.4168H6.9192L18.6727 10.8428L19.421 8.97726L20.1692 10.8428L33.4192 42.9302C33.7933 43.9252 34.791 44.6092 35.9445 44.6092C37.8463 44.6403 39.1557 42.6815 38.4074 40.9403Z" fill="#333231"/>
<path d="M64.9386 10.8428C60.4804 10.8428 56.3963 12.6462 53.3722 15.6V3.31846C53.3722 1.9504 52.1875 0.737793 50.7222 0.737793C49.3504 0.737793 48.1345 1.91931 48.1345 3.31846V42.0596C48.1345 43.4277 49.3192 44.6403 50.7222 44.6403C52.1563 44.6403 53.3722 43.4588 53.3722 42.0596V40.505C56.3963 43.4588 60.4804 45.2622 64.9386 45.2622C74.1669 45.2622 81.7116 37.5512 81.7116 28.0991C81.7116 18.5538 74.1669 10.8428 64.9386 10.8428ZM53.3722 28.068C53.3722 21.4143 58.5786 16.0353 64.9386 16.0353C71.361 16.0353 76.5051 21.4143 76.5051 28.068C76.5051 34.6596 71.361 40.0386 64.9386 40.0386C58.5786 40.0386 53.3722 34.6596 53.3722 28.068Z" fill="#333231"/>
<path d="M95.211 7.88905C97.144 7.88905 98.7963 6.27225 98.7963 4.31342C98.7963 2.3546 97.1751 0.737793 95.211 0.737793C93.2781 0.737793 91.6257 2.3546 91.6257 4.31342C91.6257 6.27225 93.2781 7.88905 95.211 7.88905ZM92.6234 42.0596C92.6234 43.4277 93.7457 44.6403 95.211 44.6403C96.6451 44.6403 97.7987 43.4588 97.7987 42.0596V14.7294C97.7987 13.2991 96.6763 12.1487 95.211 12.1487C93.7769 12.1487 92.6234 13.268 92.6234 14.7294V42.0596Z" fill="#333231"/>
<path d="M136.582 12.1487C135.148 12.1487 133.932 13.2681 133.932 14.7294V29.9025C133.932 35.5303 129.536 40.0697 124.205 40.0697C118.812 40.0697 114.416 35.5613 114.416 29.9025V14.7294C114.416 13.2992 113.231 12.1487 111.766 12.1487C110.394 12.1487 109.178 13.2681 109.178 14.7294V30.0269C109.24 38.4219 115.974 45.2622 124.205 45.2622C132.436 45.2622 139.107 38.4219 139.17 30.0269V14.7294C139.17 13.2992 138.047 12.1487 136.582 12.1487Z" fill="#333231"/>
<path d="M162.053 39.9765C158.468 39.1681 155.756 35.8412 155.756 31.8302V16.3462H161.461C162.708 16.3462 163.737 15.3513 163.737 14.0765C163.737 12.8017 162.739 11.7445 161.461 11.7445H155.756V3.13193C155.756 1.88823 154.758 0.862183 153.48 0.862183H152.794C151.547 0.862183 150.518 1.85714 150.518 3.13193V31.8302C150.518 38.3597 154.976 43.8008 161.025 45.0445C162.396 45.3555 163.737 44.2983 163.737 42.837V42.1529C163.768 41.1891 163.051 40.2252 162.053 39.9765Z" fill="#333231"/>
</svg>
