<svg width="24" height="7" viewBox="0 0 24 7" fill="none" xmlns="http://www.w3.org/2000/svg">
<path d="M12 1.66683C13.0125 1.66683 13.8333 2.48764 13.8333 3.50016C13.8333 4.51268 13.0125 5.3335 12 5.3335C10.9875 5.3335 10.1667 4.51268 10.1667 3.50016C10.1667 2.48764 10.9875 1.66683 12 1.66683Z" stroke="#F4E9DF" stroke-width="1.5"/>
<path d="M21.1667 1.66683C22.1792 1.66683 23 2.48764 23 3.50016C23 4.51268 22.1792 5.3335 21.1667 5.3335C20.1541 5.3335 19.3333 4.51268 19.3333 3.50016C19.3333 2.48764 20.1541 1.66683 21.1667 1.66683Z" stroke="#F4E9DF" stroke-width="1.5"/>
<path d="M2.83333 1.66683C3.84586 1.66683 4.66667 2.48764 4.66667 3.50016C4.66667 4.51268 3.84586 5.3335 2.83333 5.3335C1.82081 5.3335 1 4.51268 1 3.50016C1 2.48764 1.82081 1.66683 2.83333 1.66683Z" stroke="#F4E9DF" stroke-width="1.5"/>
</svg>
