<svg width="25" height="25" viewBox="0 0 25 25" fill="none" xmlns="http://www.w3.org/2000/svg">
<g clip-path="url(#clip0_106_297)">
<path d="M9.24072 22.0679C9.79301 22.0679 10.2407 21.6202 10.2407 21.0679C10.2407 20.5156 9.79301 20.0679 9.24072 20.0679C8.68844 20.0679 8.24072 20.5156 8.24072 21.0679C8.24072 21.6202 8.68844 22.0679 9.24072 22.0679Z" stroke="black" stroke-width="2" stroke-linecap="round" stroke-linejoin="round"/>
<path d="M20.2407 22.0679C20.793 22.0679 21.2407 21.6202 21.2407 21.0679C21.2407 20.5156 20.793 20.0679 20.2407 20.0679C19.6884 20.0679 19.2407 20.5156 19.2407 21.0679C19.2407 21.6202 19.6884 22.0679 20.2407 22.0679Z" stroke="black" stroke-width="2" stroke-linecap="round" stroke-linejoin="round"/>
<path d="M1.24072 1.06793H5.24072L7.92072 14.4579C8.01217 14.9183 8.26263 15.3319 8.62827 15.6262C8.99391 15.9206 9.45142 16.0769 9.92072 16.0679H19.6407C20.11 16.0769 20.5675 15.9206 20.9332 15.6262C21.2988 15.3319 21.5493 14.9183 21.6407 14.4579L23.2407 6.06793H6.24072" stroke="black" stroke-width="2" stroke-linecap="round" stroke-linejoin="round"/>
</g>
<defs>
<clipPath id="clip0_106_297">
<rect width="24" height="24" fill="white" transform="translate(0.240723 0.0679321)"/>
</clipPath>
</defs>
</svg>
